<svg xmlns="http://www.w3.org/2000/svg" version="1.1" x="0" y="0" width="66" height="66" viewBox="0 0 66 66" xml:space="preserve">
  <rect x="1" y="1" width="64" height="64" fill="#E6E6E6"/>
  <rect x="1" y="1" width="64" height="64" style="fill:none;stroke-width:2;stroke:#000"/>
  <rect x="33" y="33" width="32" height="32" fill="#E6E6E6"/>
  <rect x="33" y="33" width="32" height="32" style="fill:none;stroke-width:2;stroke:#00F"/>
  <line x1="49" y1="49" x2="56.3" y2="56.3" fill="#E6E6E6"/>
  <line x1="49" y1="49" x2="52.1" y2="52.1" style="fill:none;stroke-width:2;stroke:#F0F"/>
  <polygon points="47.5 52.7 51.2 51.2 52.7 47.5 56.3 56.3 " fill="#F0F"/>
  <line x1="33" y1="33" x2="25.7" y2="25.7" fill="#E6E6E6"/>
  <line x1="33" y1="33" x2="29.9" y2="29.9" style="fill:none;stroke-width:2;stroke:#00F"/>
  <polygon points="34.5 29.3 30.8 30.8 29.3 34.5 25.7 25.7 " fill="#00F"/>
  <rect x="33" y="33" width="16" height="16" fill="#E6E6E6"/>
  <rect x="33" y="33" width="16" height="16" style="fill:none;stroke-width:2;stroke:#F0F"/>
</svg>