<svg xmlns="http://www.w3.org/2000/svg" xmlns:xlink="http://www.w3.org/1999/xlink" version="1.1" x="0" y="0" width="480" height="480" 
  viewBox="308.6 172.8 480 480" xml:space="preserve">
<style>
.s0{
  fill:none;
  stroke-width:2;
  stroke:#FFF;
}
.s1{
  fill:none;
  stroke-width:2;
  stroke:#C01AC6;
}
.s2{
  fill:#FFF;
}

</style>  <defs>
    <pattern x="-927.4" y="1876.8" width="5" height="5" patternUnits="userSpaceOnUse" id="New_Pattern" viewBox="0 -5 5 5">
      <g id="XMLID_20_">
        <polygon id="XMLID_91_" points="0 -5 5 -5 5 0 0 0 " fill="none"/>
        <polygon id="XMLID_90_" points="4 -2 3 -2 3 -3 2 -3 2 -4 1 -4 1 -5 0 -5 0 -3 1 -3 1 -2 2 -2 2 -1 3 -1 3 0 4 0 5 0 5 -1 4 -1 "/>
        <polygon id="XMLID_89_" points="4 -4 5 -4 5 -5 4 -5 "/>
      </g>
    </pattern>
  </defs>
  <g id="XMLID_15_">
    <defs>
      <rect id="XMLID_16_" x="308.6" y="172.8" width="480" height="480"/>
    </defs>
    <clipPath id="XMLID_221_">
      <use xlink:href="#XMLID_16_"/>
    </clipPath>
    <defs>
      <filter id="Adobe_OpacityMaskFilter" filterUnits="userSpaceOnUse" x="308.6" y="172.8" width="480" height="480">
        <feFlood result="back" style="flood-color:white;flood-opacity:1"/>
        <feBlend in="SourceGraphic" in2="back" mode="normal"/>
      </filter>
    </defs>
    <mask maskUnits="userSpaceOnUse" x="308.6" y="172.8" width="480" height="480" id="L0_cells_2_">
      <g id="XMLID_219_" filter="url(#Adobe_OpacityMaskFilter)">
        <rect id="XMLID_220_" x="302.2" y="162.4" width="495.8" height="497.3" style="clip-path:url(#XMLID_221_);fill:url(#New_Pattern)"/>
      </g>
    </mask>
    <g id="L0_cells_1_" style="clip-path:url(#XMLID_221_);mask:url(#L0_cells_2_)">
      <rect id="XMLID_253_" x="308.6" y="172.8" width="480" height="480" fill="#D0BBDB"/>
    </g>
    <g id="XMLID_26_" clip-path="url(#XMLID_221_)">
      <g id="XMLID_211_">
        <line id="XMLID_218_" x1="331" y1="620.9" x2="331" y2="640.9" class="s0"/>
        <line id="XMLID_214_" x1="321" y1="630.9" x2="341" y2="630.9" class="s0"/>
        <rect id="XMLID_213_" x="321" y="620.9" width="20" height="20" class="s1"/>
        <circle id="XMLID_212_" cx="330.9" cy="630.9" r="1.4" fill="#FFF"/>
      </g>
      <g id="XMLID_199_">
        <line id="XMLID_210_" x1="311" y1="620.9" x2="311" y2="640.9" class="s0"/>
        <line id="XMLID_209_" x1="301" y1="630.9" x2="321" y2="630.9" class="s0"/>
        <rect id="XMLID_205_" x="301" y="620.9" width="20" height="20" class="s1"/>
        <circle id="XMLID_202_" cx="310.9" cy="630.9" r="1.4" fill="#FFF"/>
      </g>
      <g id="XMLID_192_">
        <line id="XMLID_196_" x1="331" y1="600.9" x2="331" y2="620.9" class="s0"/>
        <line id="XMLID_195_" x1="321" y1="610.9" x2="341" y2="610.9" class="s0"/>
        <rect id="XMLID_194_" x="321" y="600.9" width="20" height="20" class="s1"/>
        <circle id="XMLID_193_" cx="330.9" cy="610.9" r="1.4" fill="#FFF"/>
      </g>
      <g id="XMLID_183_">
        <line id="XMLID_188_" x1="311" y1="600.9" x2="311" y2="620.9" class="s0"/>
        <line id="XMLID_186_" x1="301" y1="610.9" x2="321" y2="610.9" class="s0"/>
        <rect id="XMLID_185_" x="301" y="600.9" width="20" height="20" class="s1"/>
        <circle id="XMLID_184_" cx="310.9" cy="610.9" r="1.4" fill="#FFF"/>
      </g>
      <g id="XMLID_178_">
        <line id="XMLID_182_" x1="351" y1="600.9" x2="351" y2="620.9" class="s0"/>
        <line id="XMLID_181_" x1="341" y1="610.9" x2="361" y2="610.9" class="s0"/>
        <rect id="XMLID_180_" x="341" y="600.9" width="20" height="20" class="s1"/>
        <circle id="XMLID_179_" cx="350.9" cy="610.9" r="1.4" fill="#FFF"/>
      </g>
      <g id="XMLID_169_">
        <line id="XMLID_174_" x1="351" y1="620.9" x2="351" y2="640.9" class="s0"/>
        <line id="XMLID_172_" x1="341" y1="630.9" x2="361" y2="630.9" class="s0"/>
        <rect id="XMLID_171_" x="341" y="620.9" width="20" height="20" class="s1"/>
        <circle id="XMLID_170_" cx="350.9" cy="630.9" r="1.4" fill="#FFF"/>
      </g>
      <g id="XMLID_156_">
        <line id="XMLID_168_" x1="331" y1="640.7" x2="331" y2="660.7" class="s0"/>
        <line id="XMLID_162_" x1="321" y1="650.7" x2="341" y2="650.7" class="s0"/>
        <rect id="XMLID_160_" x="321" y="640.7" width="20" height="20" class="s1"/>
        <circle id="XMLID_158_" cx="330.9" cy="650.7" r="1.4" fill="#FFF"/>
      </g>
      <g id="XMLID_150_">
        <line id="XMLID_154_" x1="311" y1="640.7" x2="311" y2="660.7" class="s0"/>
        <line id="XMLID_153_" x1="301" y1="650.7" x2="321" y2="650.7" class="s0"/>
        <rect id="XMLID_152_" x="301" y="640.7" width="20" height="20" class="s1"/>
        <circle id="XMLID_151_" cx="310.9" cy="650.7" r="1.4" fill="#FFF"/>
      </g>
      <g id="XMLID_145_">
        <line id="XMLID_149_" x1="351" y1="640.7" x2="351" y2="660.7" class="s0"/>
        <line id="XMLID_148_" x1="341" y1="650.7" x2="361" y2="650.7" class="s0"/>
        <rect id="XMLID_147_" x="341" y="640.7" width="20" height="20" class="s1"/>
        <circle id="XMLID_146_" cx="350.9" cy="650.7" r="1.4" fill="#FFF"/>
      </g>
      <g id="XMLID_140_">
        <line id="XMLID_144_" x1="341" y1="560.9" x2="341" y2="600.9" class="s0"/>
        <line id="XMLID_143_" x1="321" y1="580.9" x2="361" y2="580.9" class="s0"/>
        <rect id="XMLID_142_" x="321" y="560.9" width="40" height="40" class="s1"/>
        <circle id="XMLID_141_" cx="340.8" cy="580.9" r="2.8" fill="#FFF"/>
      </g>
      <g id="XMLID_134_">
        <line id="XMLID_138_" x1="381" y1="560.9" x2="381" y2="600.9" class="s0"/>
        <line id="XMLID_137_" x1="361" y1="580.9" x2="401" y2="580.9" class="s0"/>
        <rect id="XMLID_136_" x="361" y="560.9" width="40" height="40" class="s1"/>
        <circle id="XMLID_135_" cx="380.8" cy="580.9" r="2.8" fill="#FFF"/>
      </g>
      <g id="XMLID_128_">
        <line id="XMLID_133_" x1="301" y1="560.9" x2="301" y2="600.9" class="s0"/>
        <line id="XMLID_132_" x1="281" y1="580.9" x2="321" y2="580.9" class="s0"/>
        <rect id="XMLID_131_" x="281" y="560.9" width="40" height="40" class="s1"/>
        <circle id="XMLID_130_" cx="300.8" cy="580.9" r="2.8" fill="#FFF"/>
      </g>
      <g id="XMLID_119_">
        <line id="XMLID_127_" x1="381" y1="600.9" x2="381" y2="640.8" class="s0"/>
        <line id="XMLID_126_" x1="361" y1="620.9" x2="401" y2="620.9" class="s0"/>
        <rect id="XMLID_121_" x="361" y="600.9" width="40" height="40" class="s1"/>
        <circle id="XMLID_120_" cx="380.8" cy="620.8" r="2.8" fill="#FFF"/>
      </g>
      <g id="XMLID_113_">
        <line id="XMLID_118_" x1="381" y1="640.7" x2="381" y2="680.6" class="s0"/>
        <line id="XMLID_117_" x1="361" y1="660.6" x2="401" y2="660.6" class="s0"/>
        <rect id="XMLID_115_" x="361" y="640.7" width="40" height="40" class="s1"/>
        <circle id="XMLID_114_" cx="380.8" cy="660.6" r="2.8" fill="#FFF"/>
      </g>
      <g id="XMLID_104_">
        <line id="XMLID_112_" x1="361" y1="481" x2="361" y2="560.9" class="s0"/>
        <line id="XMLID_111_" x1="321" y1="520.9" x2="401" y2="520.9" class="s0"/>
        <rect id="XMLID_106_" x="321" y="481" width="80" height="79.9" class="s1"/>
        <circle id="XMLID_105_" cx="360.6" cy="520.9" r="5.5" fill="#FFF"/>
      </g>
      <g id="XMLID_96_">
        <line id="XMLID_100_" x1="281" y1="481" x2="281" y2="560.9" class="s0"/>
        <line id="XMLID_99_" x1="241" y1="520.9" x2="321" y2="520.9" class="s0"/>
        <rect id="XMLID_98_" x="241" y="481" width="80" height="79.9" class="s1"/>
        <circle id="XMLID_97_" cx="280.6" cy="520.9" r="5.5" fill="#FFF"/>
      </g>
      <g id="XMLID_87_">
        <line id="XMLID_94_" x1="441" y1="481" x2="441" y2="560.9" class="s0"/>
        <line id="XMLID_93_" x1="401" y1="520.9" x2="481" y2="520.9" class="s0"/>
        <rect id="XMLID_92_" x="401" y="481" width="80" height="79.9" class="s1"/>
        <circle id="XMLID_88_" cx="440.6" cy="520.9" r="5.5" fill="#FFF"/>
      </g>
      <g id="XMLID_82_">
        <line id="XMLID_86_" x1="441" y1="560.9" x2="441" y2="640.8" class="s0"/>
        <line id="XMLID_85_" x1="401" y1="600.9" x2="481" y2="600.9" class="s0"/>
        <rect id="XMLID_84_" x="401" y="560.9" width="80" height="79.9" class="s1"/>
        <circle id="XMLID_83_" cx="440.6" cy="600.9" r="5.5" fill="#FFF"/>
      </g>
      <g id="XMLID_77_">
        <line id="XMLID_81_" x1="441" y1="640.6" x2="441" y2="720.5" class="s0"/>
        <line id="XMLID_80_" x1="401" y1="680.6" x2="481" y2="680.6" class="s0"/>
        <rect id="XMLID_79_" x="401" y="640.6" width="80" height="79.9" class="s1"/>
        <circle id="XMLID_78_" cx="440.6" cy="680.6" r="5.5" fill="#FFF"/>
      </g>
      <g id="XMLID_72_">
        <line id="XMLID_76_" x1="401" y1="321.3" x2="401" y2="481" class="s0"/>
        <line id="XMLID_75_" x1="321" y1="401.1" x2="481" y2="401.1" class="s0"/>
        <rect id="XMLID_74_" x="321" y="321.3" width="160" height="159.9" class="s1"/>
        <ellipse id="XMLID_73_" cx="400.1" cy="401.1" rx="11" ry="11" fill="#FFF"/>
      </g>
      <g id="XMLID_67_">
        <line id="XMLID_71_" x1="241" y1="321.3" x2="241" y2="481" class="s0"/>
        <line id="XMLID_70_" x1="161" y1="401.1" x2="321" y2="401.1" class="s0"/>
        <rect id="XMLID_69_" x="161" y="321.3" width="160" height="159.9" class="s1"/>
        <ellipse id="XMLID_68_" cx="240.1" cy="401.1" rx="11" ry="11" fill="#FFF"/>
      </g>
      <g id="XMLID_62_">
        <line id="XMLID_66_" x1="561" y1="321.3" x2="561" y2="481" class="s0"/>
        <line id="XMLID_65_" x1="481" y1="401.1" x2="641" y2="401.1" class="s0"/>
        <rect id="XMLID_64_" x="481" y="321.3" width="160" height="159.9" class="s1"/>
        <ellipse id="XMLID_63_" cx="560.1" cy="401.1" rx="11" ry="11" fill="#FFF"/>
      </g>
      <g id="XMLID_57_">
        <line id="XMLID_61_" x1="561" y1="481" x2="561" y2="640.7" class="s0"/>
        <line id="XMLID_60_" x1="481" y1="560.8" x2="641" y2="560.8" class="s0"/>
        <rect id="XMLID_59_" x="481" y="481" width="160" height="159.9" class="s1"/>
        <ellipse id="XMLID_58_" cx="560.1" cy="560.8" rx="11" ry="11" fill="#FFF"/>
      </g>
      <g id="XMLID_52_">
        <line id="XMLID_56_" x1="561" y1="640.6" x2="561" y2="800.3" class="s0"/>
        <line id="XMLID_55_" x1="481" y1="720.5" x2="641" y2="720.5" class="s0"/>
        <rect id="XMLID_54_" x="481" y="640.6" width="160" height="159.9" class="s1"/>
        <ellipse id="XMLID_53_" cx="560.1" cy="720.4" rx="11" ry="11" fill="#FFF"/>
      </g>
      <g id="XMLID_47_">
        <line id="XMLID_51_" x1="801" y1="321.3" x2="801" y2="641.1" class="s0"/>
        <line id="XMLID_50_" x1="641" y1="481.2" x2="961" y2="481.2" class="s0"/>
        <rect id="XMLID_49_" x="641" y="321.3" width="320" height="320" class="s1"/>
        <circle id="XMLID_48_" cx="799.3" cy="481.1" r="22" fill="#FFF"/>
      </g>
      <g id="XMLID_42_">
        <line id="XMLID_46_" x1="801" y1="641.3" x2="801" y2="961.1" class="s0"/>
        <line id="XMLID_45_" x1="641" y1="801.2" x2="961" y2="801.2" class="s0"/>
        <rect id="XMLID_44_" x="641" y="641.3" width="320" height="320" class="s1"/>
        <circle id="XMLID_43_" cx="799.3" cy="801.1" r="22" fill="#FFF"/>
      </g>
      <g id="XMLID_37_">
        <line id="XMLID_41_" x1="801" y1="1" x2="801" y2="320.8" class="s0"/>
        <line id="XMLID_40_" x1="641" y1="160.9" x2="961" y2="160.9" class="s0"/>
        <rect id="XMLID_39_" x="641" y="1" width="320" height="320" class="s1"/>
        <circle id="XMLID_38_" cx="799.3" cy="160.8" r="22" fill="#FFF"/>
      </g>
      <g id="XMLID_32_">
        <line id="XMLID_36_" x1="481" y1="1" x2="481" y2="320.8" class="s0"/>
        <line id="XMLID_35_" x1="321" y1="160.9" x2="641" y2="160.9" class="s0"/>
        <rect id="XMLID_34_" x="321" y="1" width="320" height="320" class="s1"/>
        <circle id="XMLID_33_" cx="479.3" cy="160.8" r="22" fill="#FFF"/>
      </g>
      <g id="XMLID_27_">
        <line id="XMLID_31_" x1="161" y1="1" x2="161" y2="320.8" class="s0"/>
        <line id="XMLID_30_" x1="1" y1="160.9" x2="321" y2="160.9" class="s0"/>
        <rect id="XMLID_29_" x="1" y="1" width="320" height="320" class="s1"/>
        <circle id="XMLID_28_" cx="159.3" cy="160.8" r="22" fill="#FFF"/>
      </g>
    </g>
    <g id="XMLID_17_" style="clip-path:url(#XMLID_221_);opacity:0.5">
      <g id="XMLID_19_">
        <path id="XMLID_21_" d="M308.6 172.8v480h480v-480H308.6zM328.8 637.8l-3.8-3.2 209.9-438.6 232 230.8L328.8 637.8z" fill="#FFF"/>
      </g>
    </g>
  </g>
</svg>