<svg xmlns="http://www.w3.org/2000/svg" version="1.1" x="0" y="0" width="322" height="322.5" viewBox="0 0 322 322.5" xml:space="preserve">
<style>
.s0{
	fill:#010101;
}
.s1{
	fill:none;
	stroke-width:2;
	stroke:#FFF;
}
.s2{
	fill:none;
	stroke-width:2;
	stroke:#B896C6;
}
.s3{
	fill:#FFF;
}

</style>  <defs>
    <pattern x="-145.2" y="-235.3" width="5" height="5" patternUnits="userSpaceOnUse" viewBox="0 -5 5 5">
      <polygon points="0 -5 5 -5 5 0 0 0 " fill="none"/>
      <polygon points="4 -2 3 -2 3 -3 2 -3 2 -4 1 -4 1 -5 0 -5 0 -3 1 -3 1 -2 2 -2 2 -1 3 -1 3 0 4 0 5 0 5 -1 4 -1 " fill="#010101"/>
      <polygon points="4 -4 5 -4 5 -5 4 -5 " fill="#010101"/>
    </pattern>
  </defs>
  <defs>
    <filter filterUnits="userSpaceOnUse" x="1.8" y="1.7" width="320" height="320">
      <feFlood result="back" style="flood-color:white;flood-opacity:1"/>
      <feBlend in="SourceGraphic" in2="back" mode="normal"/>
    </filter>
  </defs>
  <mask maskUnits="userSpaceOnUse" x="1.8" y="1.7" width="320" height="320">
    <rect x="-2.6" y="-5.2" width="330.5" height="331.5" fill="url(#New_Pattern)"/>
  </mask>
  <rect x="1.8" y="1.7" width="320" height="320" fill="#D0BBDB"/>
  <line x1="161" y1="1.5" x2="161" y2="321.3" class="s1"/>
  <line x1="1" y1="161.4" x2="321" y2="161.4" class="s1"/>
  <rect x="1" y="1.5" width="320" height="320" class="s2"/>
  <circle cx="159.3" cy="161.3" r="22" fill="#FFF"/>
  <line x1="121.3" y1="81.2" x2="121.3" y2="161.1" class="s1"/>
  <line x1="81.3" y1="121.1" x2="161.3" y2="121.1" class="s1"/>
  <rect x="81.3" y="81.2" width="80" height="79.9" class="s2"/>
  <circle cx="120.8" cy="121.1" r="5.5" fill="#FFF"/>
  <line x1="41.3" y1="81.2" x2="41.3" y2="161.1" class="s1"/>
  <line x1="1.3" y1="121.1" x2="81.3" y2="121.1" class="s1"/>
  <rect x="1.3" y="81.2" width="80" height="79.9" class="s2"/>
  <circle cx="40.8" cy="121.1" r="5.5" fill="#FFF"/>
  <line x1="121.3" y1="1.3" x2="121.3" y2="81.1" class="s1"/>
  <line x1="81.3" y1="41.2" x2="161.3" y2="41.2" class="s1"/>
  <rect x="81.3" y="1.3" width="80" height="79.9" class="s2"/>
  <circle cx="120.8" cy="41.2" r="5.5" fill="#FFF"/>
  <line x1="41.3" y1="1.3" x2="41.3" y2="81.1" class="s1"/>
  <line x1="1.3" y1="41.2" x2="81.3" y2="41.2" class="s1"/>
  <rect x="1.3" y="1.3" width="80" height="79.9" class="s2"/>
  <circle cx="40.8" cy="41.2" r="5.5" fill="#FFF"/>
  <line x1="141.3" y1="41.2" x2="141.3" y2="81.2" class="s1"/>
  <line x1="121.3" y1="61.2" x2="161.3" y2="61.2" class="s1"/>
  <rect x="121.3" y="41.2" width="40" height="40" class="s2"/>
  <circle cx="141" cy="61.2" r="2.8" fill="#FFF"/>
  <line x1="101.3" y1="41.2" x2="101.3" y2="81.2" class="s1"/>
  <line x1="81.3" y1="61.2" x2="121.3" y2="61.2" class="s1"/>
  <rect x="81.3" y="41.2" width="40" height="40" class="s2"/>
  <circle cx="101" cy="61.2" r="2.8" fill="#FFF"/>
  <line x1="61.3" y1="41.2" x2="61.3" y2="81.2" class="s1"/>
  <line x1="41.3" y1="61.2" x2="81.3" y2="61.2" class="s1"/>
  <rect x="41.3" y="41.2" width="40" height="40" class="s2"/>
  <circle cx="61" cy="61.2" r="2.8" fill="#FFF"/>
  <line x1="21.3" y1="41.2" x2="21.3" y2="81.2" class="s1"/>
  <line x1="1.3" y1="61.2" x2="41.3" y2="61.2" class="s1"/>
  <rect x="1.3" y="41.2" width="40" height="40" class="s2"/>
  <circle cx="21" cy="61.2" r="2.8" fill="#FFF"/>
  <line x1="141.3" y1="1.3" x2="141.3" y2="41.2" class="s1"/>
  <line x1="121.3" y1="21.2" x2="161.3" y2="21.2" class="s1"/>
  <rect x="121.3" y="1.3" width="40" height="40" class="s2"/>
  <circle cx="141" cy="21.2" r="2.8" fill="#FFF"/>
  <line x1="101.3" y1="1.3" x2="101.3" y2="41.2" class="s1"/>
  <line x1="81.3" y1="21.2" x2="121.3" y2="21.2" class="s1"/>
  <rect x="81.3" y="1.3" width="40" height="40" class="s2"/>
  <circle cx="101" cy="21.2" r="2.8" fill="#FFF"/>
  <line x1="61.3" y1="1.3" x2="61.3" y2="41.2" class="s1"/>
  <line x1="41.3" y1="21.2" x2="81.3" y2="21.2" class="s1"/>
  <rect x="41.3" y="1.3" width="40" height="40" class="s2"/>
  <circle cx="61" cy="21.2" r="2.8" fill="#FFF"/>
  <line x1="21.3" y1="1.3" x2="21.3" y2="41.2" class="s1"/>
  <line x1="1.3" y1="21.2" x2="41.3" y2="21.2" class="s1"/>
  <rect x="1.3" y="1.3" width="40" height="40" class="s2"/>
  <circle cx="21" cy="21.2" r="2.8" fill="#FFF"/>
  <line x1="141.3" y1="121.2" x2="141.3" y2="161.1" class="s1"/>
  <line x1="121.3" y1="141.1" x2="161.3" y2="141.1" class="s1"/>
  <rect x="121.3" y="121.2" width="40" height="40" class="s2"/>
  <circle cx="141" cy="141.1" r="2.8" fill="#FFF"/>
  <line x1="101.3" y1="121.2" x2="101.3" y2="161.1" class="s1"/>
  <line x1="81.3" y1="141.1" x2="121.3" y2="141.1" class="s1"/>
  <rect x="81.3" y="121.2" width="40" height="40" class="s2"/>
  <circle cx="101" cy="141.1" r="2.8" fill="#FFF"/>
  <line x1="141.3" y1="81.2" x2="141.3" y2="121.1" class="s1"/>
  <line x1="121.3" y1="101.2" x2="161.3" y2="101.2" class="s1"/>
  <rect x="121.3" y="81.2" width="40" height="40" class="s2"/>
  <circle cx="141" cy="101.2" r="2.8" fill="#FFF"/>
  <line x1="101.3" y1="81.2" x2="101.3" y2="121.1" class="s1"/>
  <line x1="81.3" y1="101.2" x2="121.3" y2="101.2" class="s1"/>
  <rect x="81.3" y="81.2" width="40" height="40" class="s2"/>
  <circle cx="101" cy="101.2" r="2.8" fill="#FFF"/>
  <line x1="151" y1="61" x2="151" y2="80.9" class="s1"/>
  <line x1="141" y1="71" x2="161" y2="71" class="s1"/>
  <rect x="141" y="61" width="20" height="20" class="s2"/>
  <circle cx="150.9" cy="70.9" r="1.4" fill="#FFF"/>
  <line x1="131" y1="61" x2="131" y2="80.9" class="s1"/>
  <line x1="121" y1="71" x2="141" y2="71" class="s1"/>
  <rect x="121" y="61" width="20" height="20" class="s2"/>
  <circle cx="130.9" cy="70.9" r="1.4" fill="#FFF"/>
  <line x1="111" y1="61" x2="111" y2="80.9" class="s1"/>
  <line x1="101" y1="71" x2="121" y2="71" class="s1"/>
  <rect x="101" y="61" width="20" height="20" class="s2"/>
  <circle cx="110.9" cy="70.9" r="1.4" fill="#FFF"/>
  <line x1="91" y1="61" x2="91" y2="80.9" class="s1"/>
  <line x1="81" y1="71" x2="101" y2="71" class="s1"/>
  <rect x="81" y="61" width="20" height="20" class="s2"/>
  <circle cx="90.9" cy="70.9" r="1.4" fill="#FFF"/>
  <line x1="151" y1="41" x2="151" y2="61" class="s1"/>
  <line x1="141" y1="51" x2="161" y2="51" class="s1"/>
  <rect x="141" y="41" width="20" height="20" class="s2"/>
  <circle cx="150.9" cy="51" r="1.4" fill="#FFF"/>
  <line x1="131" y1="41" x2="131" y2="61" class="s1"/>
  <line x1="121" y1="51" x2="141" y2="51" class="s1"/>
  <rect x="121" y="41" width="20" height="20" class="s2"/>
  <circle cx="130.9" cy="51" r="1.4" fill="#FFF"/>
  <line x1="111" y1="41" x2="111" y2="61" class="s1"/>
  <line x1="101" y1="51" x2="121" y2="51" class="s1"/>
  <rect x="101" y="41" width="20" height="20" class="s2"/>
  <circle cx="110.9" cy="51" r="1.4" fill="#FFF"/>
  <line x1="91" y1="41" x2="91" y2="61" class="s1"/>
  <line x1="81" y1="51" x2="101" y2="51" class="s1"/>
  <rect x="81" y="41" width="20" height="20" class="s2"/>
  <circle cx="90.9" cy="51" r="1.4" fill="#FFF"/>
  <line x1="151" y1="21" x2="151" y2="41" class="s1"/>
  <line x1="141" y1="31" x2="161" y2="31" class="s1"/>
  <rect x="141" y="21" width="20" height="20" class="s2"/>
  <circle cx="150.9" cy="31" r="1.4" fill="#FFF"/>
  <line x1="131" y1="21" x2="131" y2="41" class="s1"/>
  <line x1="121" y1="31" x2="141" y2="31" class="s1"/>
  <rect x="121" y="21" width="20" height="20" class="s2"/>
  <circle cx="130.9" cy="31" r="1.4" fill="#FFF"/>
  <line x1="111" y1="21" x2="111" y2="41" class="s1"/>
  <line x1="101" y1="31" x2="121" y2="31" class="s1"/>
  <rect x="101" y="21" width="20" height="20" class="s2"/>
  <circle cx="110.9" cy="31" r="1.4" fill="#FFF"/>
  <line x1="91" y1="21" x2="91" y2="41" class="s1"/>
  <line x1="81" y1="31" x2="101" y2="31" class="s1"/>
  <rect x="81" y="21" width="20" height="20" class="s2"/>
  <circle cx="90.9" cy="31" r="1.4" fill="#FFF"/>
  <line x1="151" y1="1" x2="151" y2="21" class="s1"/>
  <line x1="141" y1="11" x2="161" y2="11" class="s1"/>
  <rect x="141" y="1" width="20" height="20" class="s2"/>
  <circle cx="150.9" cy="11" r="1.4" fill="#FFF"/>
  <line x1="131" y1="1" x2="131" y2="21" class="s1"/>
  <line x1="121" y1="11" x2="141" y2="11" class="s1"/>
  <rect x="121" y="1" width="20" height="20" class="s2"/>
  <circle cx="130.9" cy="11" r="1.4" fill="#FFF"/>
  <line x1="111" y1="1" x2="111" y2="21" class="s1"/>
  <line x1="101" y1="11" x2="121" y2="11" class="s1"/>
  <rect x="101" y="1" width="20" height="20" class="s2"/>
  <circle cx="110.9" cy="11" r="1.4" fill="#FFF"/>
  <line x1="91" y1="1" x2="91" y2="21" class="s1"/>
  <line x1="81" y1="11" x2="101" y2="11" class="s1"/>
  <rect x="81" y="1" width="20" height="20" class="s2"/>
  <circle cx="90.9" cy="11" r="1.4" fill="#FFF"/>
  <line x1="241" y1="1" x2="241" y2="160.7" class="s1"/>
  <line x1="161" y1="80.9" x2="321" y2="80.9" class="s1"/>
  <rect x="161" y="1" width="160" height="159.9" class="s2"/>
  <ellipse cx="240.1" cy="80.8" rx="11" ry="11" fill="#FFF"/>
  <line x1="241" y1="161.1" x2="241" y2="320.9" class="s1"/>
  <line x1="161" y1="241" x2="321" y2="241" class="s1"/>
  <rect x="161" y="161.1" width="160" height="159.9" class="s2"/>
  <ellipse cx="240.1" cy="240.9" rx="11" ry="11" fill="#FFF"/>
  <line x1="81" y1="161.1" x2="81" y2="320.9" class="s1"/>
  <line x1="1" y1="241" x2="161" y2="241" class="s1"/>
  <rect x="1" y="161.1" width="160" height="159.9" class="s2"/>
  <ellipse cx="80.1" cy="240.9" rx="11" ry="11" fill="#FFF"/>
</svg>