<svg xmlns="http://www.w3.org/2000/svg" version="1.1" x="0" y="0" width="258" height="258" viewBox="0 0 258 258" xml:space="preserve">
  <rect x="161" y="161" width="16" height="16" style="fill:#E6E6E6;stroke-width:2;stroke:#000"/>
  <rect x="161" y="161" width="32" height="32" style="fill:#E6E6E6;stroke-width:2;stroke:#000"/>
  <rect x="129" y="129" width="64" height="64" style="fill:#E6E6E6;stroke-width:2;stroke:#000"/>
  <rect x="129" y="129" width="128" height="128" style="fill:#E6E6E6;stroke-width:2;stroke:#000"/>
  <rect x="1" y="1" width="256" height="256" style="fill:#E6E6E6;stroke-width:2;stroke:#000"/>
  <polygon points="24.9 214.7 96 180.4 58.3 142.9 24.2 214.2 " fill="#FFF"/>
  <rect x="17.2" y="216.5" transform="matrix(0.7176 -0.6964 0.6964 0.7176 -147.2301 75.813)" width="5.3" height="6"/>
  <polygon points="25.9 218.3 21.2 218.2 21.3 213.5 "/>
  <line x1="177.5" y1="161" x2="177.5" y2="162" style="fill:none;stroke:#000"/>
  <line x1="177.5" y1="165" x2="177.5" y2="191" style="fill:none;stroke-dasharray:1;stroke:#000"/>
  <line x1="177.5" y1="193" x2="177.5" y2="193" style="fill:none;stroke:#000"/>
  <line x1="161" y1="177.5" x2="161" y2="177.5" style="fill:none;stroke:#000"/>
  <line x1="164" y1="177.5" x2="191" y2="177.5" style="fill:none;stroke-dasharray:1;stroke:#000"/>
  <line x1="192" y1="177.5" x2="193" y2="177.5" style="fill:none;stroke:#000"/>
  <line x1="160.5" y1="129" x2="160.5" y2="130" style="fill:none;stroke:#000"/>
  <line x1="160.5" y1="133" x2="160.5" y2="191" style="fill:none;stroke-dasharray:1;stroke:#000"/>
  <line x1="160.5" y1="193" x2="160.5" y2="193" style="fill:none;stroke:#000"/>
  <line x1="129" y1="161.5" x2="129" y2="161.5" style="fill:none;stroke:#000"/>
  <line x1="132" y1="161.5" x2="191" y2="161.5" style="fill:none;stroke-dasharray:1;stroke:#000"/>
  <line x1="192" y1="161.5" x2="193" y2="161.5" style="fill:none;stroke:#000"/>
  <line x1="192.5" y1="129" x2="192.5" y2="130" style="fill:none;stroke:#000"/>
  <line x1="192.5" y1="133" x2="192.5" y2="255" style="fill:none;stroke-dasharray:1;stroke:#000"/>
  <line x1="192.5" y1="257" x2="192.5" y2="257" style="fill:none;stroke:#000"/>
  <line x1="129" y1="193.5" x2="129" y2="193.5" style="fill:none;stroke:#000"/>
  <line x1="132" y1="193.5" x2="255" y2="193.5" style="fill:none;stroke-dasharray:1;stroke:#000"/>
  <line x1="256" y1="193.5" x2="257" y2="193.5" style="fill:none;stroke:#000"/>
  <line x1="128.5" y1="1" x2="128.5" y2="2" style="fill:none;stroke:#000"/>
  <line x1="128.5" y1="5" x2="128.5" y2="255" style="fill:none;stroke-dasharray:1;stroke:#000"/>
  <line x1="128.5" y1="257" x2="128.5" y2="257" style="fill:none;stroke:#000"/>
  <line x1="1" y1="129.5" x2="1" y2="129.5" style="fill:none;stroke:#000"/>
  <line x1="4" y1="129.5" x2="255" y2="129.5" style="fill:none;stroke-dasharray:1;stroke:#000"/>
  <line x1="256" y1="129.5" x2="257" y2="129.5" style="fill:none;stroke:#000"/>
</svg>